<?xml version="1.0" encoding="UTF-8"?>
<svg xmlns="http://www.w3.org/2000/svg" xmlns:xlink="http://www.w3.org/1999/xlink" viewBox="0 0 20 20" width="20px" height="20px">
<g id="surface188734451">
<path style=" stroke:none;fill-rule:nonzero;fill:rgb(90.588236%,29.803923%,23.529412%);fill-opacity:1;" d="M 8.121094 1.25 C 7.09375 1.25 6.25 2.09375 6.25 3.121094 L 6.25 3.75 L 2.5 3.75 L 2.5 5 L 3.75 5 L 3.75 15.625 C 3.75 16.660156 4.589844 17.5 5.625 17.5 L 13.125 17.5 C 14.160156 17.5 15 16.660156 15 15.625 L 15 5 L 16.25 5 L 16.25 3.75 L 12.5 3.75 L 12.5 3.121094 C 12.5 2.09375 11.65625 1.25 10.628906 1.25 Z M 8.121094 2.5 L 10.628906 2.5 C 10.980469 2.5 11.25 2.769531 11.25 3.121094 L 11.25 3.75 L 7.5 3.75 L 7.5 3.121094 C 7.5 2.769531 7.769531 2.5 8.121094 2.5 Z M 6.25 6.25 L 7.5 6.25 L 7.5 15 L 6.25 15 Z M 8.75 6.25 L 10 6.25 L 10 15 L 8.75 15 Z M 11.25 6.25 L 12.5 6.25 L 12.5 15 L 11.25 15 Z M 11.25 6.25 "/>
</g>
</svg>
